<?xml version="1.0" encoding="UTF-8" standalone="no"?>
<!DOCTYPE svg PUBLIC "-//W3C//DTD SVG 1.1//EN"
 "http://www.w3.org/Graphics/SVG/1.1/DTD/svg11.dtd">
<!-- Generated by graphviz version 2.43.0 (0)
 -->
<!-- Title: pastafarianism Pages: 1 -->
<svg width="588pt" height="188pt"
 viewBox="0.00 0.00 588.14 188.00" xmlns="http://www.w3.org/2000/svg" xmlns:xlink="http://www.w3.org/1999/xlink">
<g id="graph0" class="graph" transform="scale(1 1) rotate(0) translate(4 184)">
<title>pastafarianism</title>
<polygon fill="white" stroke="transparent" points="-4,4 -4,-184 584.14,-184 584.14,4 -4,4"/>
<!-- Root -->
<g id="node1" class="node">
<title>Root</title>
<polygon fill="cyan" stroke="black" points="401.41,-154.54 401.41,-169.46 385.6,-180 363.23,-180 347.41,-169.46 347.41,-154.54 363.23,-144 385.6,-144 401.41,-154.54"/>
<text text-anchor="middle" x="374.41" y="-159.8" font-family="Times,serif" font-size="9.00">Root</text>
</g>
<!-- BatteryCheck -->
<g id="node2" class="node">
<title>BatteryCheck</title>
<polygon fill="orange" stroke="black" points="174.41,-108 94.41,-108 94.41,-72 174.41,-72 174.41,-108"/>
<text text-anchor="middle" x="134.41" y="-87.8" font-family="Times,serif" font-size="9.00">BatteryCheck</text>
</g>
<!-- Root&#45;&gt;BatteryCheck -->
<g id="edge1" class="edge">
<title>Root&#45;&gt;BatteryCheck</title>
<path fill="none" stroke="black" d="M348.73,-153.51C309.62,-142.1 234.4,-120.16 184.29,-105.55"/>
<polygon fill="black" stroke="black" points="185.21,-102.17 174.63,-102.73 183.25,-108.89 185.21,-102.17"/>
</g>
<!-- SafetyCheck -->
<g id="node5" class="node">
<title>SafetyCheck</title>
<polygon fill="orange" stroke="black" points="359.41,-108 285.41,-108 285.41,-72 359.41,-72 359.41,-108"/>
<text text-anchor="middle" x="322.41" y="-87.8" font-family="Times,serif" font-size="9.00">SafetyCheck</text>
</g>
<!-- Root&#45;&gt;SafetyCheck -->
<g id="edge4" class="edge">
<title>Root&#45;&gt;SafetyCheck</title>
<path fill="none" stroke="black" d="M362.09,-144.41C355.93,-136.12 348.33,-125.89 341.44,-116.62"/>
<polygon fill="black" stroke="black" points="344.15,-114.39 335.37,-108.45 338.53,-118.56 344.15,-114.39"/>
</g>
<!-- OtherRobotCheck -->
<g id="node8" class="node">
<title>OtherRobotCheck</title>
<polygon fill="orange" stroke="black" points="476.91,-108 377.91,-108 377.91,-72 476.91,-72 476.91,-108"/>
<text text-anchor="middle" x="427.41" y="-87.8" font-family="Times,serif" font-size="9.00">OtherRobotCheck</text>
</g>
<!-- Root&#45;&gt;OtherRobotCheck -->
<g id="edge7" class="edge">
<title>Root&#45;&gt;OtherRobotCheck</title>
<path fill="none" stroke="black" d="M386.97,-144.41C393.26,-136.12 401,-125.89 408.02,-116.62"/>
<polygon fill="black" stroke="black" points="410.96,-118.53 414.2,-108.45 405.38,-114.31 410.96,-118.53"/>
</g>
<!-- PatrolRooms -->
<g id="node11" class="node">
<title>PatrolRooms</title>
<ellipse fill="gray" stroke="black" cx="537.41" cy="-90" rx="42.95" ry="18"/>
<text text-anchor="middle" x="537.41" y="-87.8" font-family="Times,serif" font-size="9.00">PatrolRooms</text>
</g>
<!-- Root&#45;&gt;PatrolRooms -->
<g id="edge10" class="edge">
<title>Root&#45;&gt;PatrolRooms</title>
<path fill="none" stroke="black" d="M396.74,-151.41C423.05,-140.11 467.22,-121.15 499.05,-107.48"/>
<polygon fill="black" stroke="black" points="500.69,-110.58 508.5,-103.42 497.93,-104.15 500.69,-110.58"/>
</g>
<!-- BatteryLow -->
<g id="node3" class="node">
<title>BatteryLow</title>
<ellipse fill="gray" stroke="black" cx="40.41" cy="-18" rx="40.33" ry="18"/>
<text text-anchor="middle" x="40.41" y="-15.8" font-family="Times,serif" font-size="9.00">BatteryLow</text>
</g>
<!-- BatteryCheck&#45;&gt;BatteryLow -->
<g id="edge2" class="edge">
<title>BatteryCheck&#45;&gt;BatteryLow</title>
<path fill="none" stroke="black" d="M111.18,-71.7C98.21,-62.04 81.97,-49.95 68.32,-39.78"/>
<polygon fill="black" stroke="black" points="70.32,-36.9 60.21,-33.74 66.14,-42.52 70.32,-36.9"/>
</g>
<!-- Recharge -->
<g id="node4" class="node">
<title>Recharge</title>
<ellipse fill="gray" stroke="black" cx="134.41" cy="-18" rx="35.44" ry="18"/>
<text text-anchor="middle" x="134.41" y="-15.8" font-family="Times,serif" font-size="9.00">Recharge</text>
</g>
<!-- BatteryCheck&#45;&gt;Recharge -->
<g id="edge3" class="edge">
<title>BatteryCheck&#45;&gt;Recharge</title>
<path fill="none" stroke="black" d="M134.41,-71.7C134.41,-63.98 134.41,-54.71 134.41,-46.11"/>
<polygon fill="black" stroke="black" points="137.91,-46.1 134.41,-36.1 130.91,-46.1 137.91,-46.1"/>
</g>
<!-- DetectPerson -->
<g id="node6" class="node">
<title>DetectPerson</title>
<ellipse fill="gray" stroke="black" cx="233.41" cy="-18" rx="45.72" ry="18"/>
<text text-anchor="middle" x="233.41" y="-15.8" font-family="Times,serif" font-size="9.00">DetectPerson</text>
</g>
<!-- SafetyCheck&#45;&gt;DetectPerson -->
<g id="edge5" class="edge">
<title>SafetyCheck&#45;&gt;DetectPerson</title>
<path fill="none" stroke="black" d="M300.41,-71.7C288.51,-62.33 273.68,-50.67 261.01,-40.7"/>
<polygon fill="black" stroke="black" points="263.06,-37.87 253.04,-34.44 258.74,-43.37 263.06,-37.87"/>
</g>
<!-- Stop -->
<g id="node7" class="node">
<title>Stop</title>
<ellipse fill="gray" stroke="black" cx="324.41" cy="-18" rx="27" ry="18"/>
<text text-anchor="middle" x="324.41" y="-15.8" font-family="Times,serif" font-size="9.00">Stop</text>
</g>
<!-- SafetyCheck&#45;&gt;Stop -->
<g id="edge6" class="edge">
<title>SafetyCheck&#45;&gt;Stop</title>
<path fill="none" stroke="black" d="M322.91,-71.7C323.13,-63.98 323.39,-54.71 323.64,-46.11"/>
<polygon fill="black" stroke="black" points="327.14,-46.2 323.93,-36.1 320.14,-46 327.14,-46.2"/>
</g>
<!-- DetectOtherRobot -->
<g id="node9" class="node">
<title>DetectOtherRobot</title>
<ellipse fill="gray" stroke="black" cx="427.41" cy="-18" rx="58.13" ry="18"/>
<text text-anchor="middle" x="427.41" y="-15.8" font-family="Times,serif" font-size="9.00">DetectOtherRobot</text>
</g>
<!-- OtherRobotCheck&#45;&gt;DetectOtherRobot -->
<g id="edge8" class="edge">
<title>OtherRobotCheck&#45;&gt;DetectOtherRobot</title>
<path fill="none" stroke="black" d="M427.41,-71.7C427.41,-63.98 427.41,-54.71 427.41,-46.11"/>
<polygon fill="black" stroke="black" points="430.91,-46.1 427.41,-36.1 423.91,-46.1 430.91,-46.1"/>
</g>
<!-- Yield -->
<g id="node10" class="node">
<title>Yield</title>
<ellipse fill="gray" stroke="black" cx="530.41" cy="-18" rx="27" ry="18"/>
<text text-anchor="middle" x="530.41" y="-15.8" font-family="Times,serif" font-size="9.00">Yield</text>
</g>
<!-- OtherRobotCheck&#45;&gt;Yield -->
<g id="edge9" class="edge">
<title>OtherRobotCheck&#45;&gt;Yield</title>
<path fill="none" stroke="black" d="M452.61,-71.88C468.19,-61.29 488.16,-47.72 503.96,-36.98"/>
<polygon fill="black" stroke="black" points="505.96,-39.85 512.26,-31.34 502.02,-34.06 505.96,-39.85"/>
</g>
</g>
</svg>
