<?xml version="1.0" encoding="UTF-8" standalone="no"?>
<!DOCTYPE svg PUBLIC "-//W3C//DTD SVG 1.1//EN"
 "http://www.w3.org/Graphics/SVG/1.1/DTD/svg11.dtd">
<!-- Generated by graphviz version 2.43.0 (0)
 -->
<!-- Title: pastafarianism Pages: 1 -->
<svg width="382pt" height="188pt"
 viewBox="0.00 0.00 382.14 188.00" xmlns="http://www.w3.org/2000/svg" xmlns:xlink="http://www.w3.org/1999/xlink">
<g id="graph0" class="graph" transform="scale(1 1) rotate(0) translate(4 184)">
<title>pastafarianism</title>
<polygon fill="white" stroke="transparent" points="-4,4 -4,-184 378.14,-184 378.14,4 -4,4"/>
<!-- Root -->
<g id="node1" class="node">
<title>Root</title>
<polygon fill="cyan" stroke="black" points="260.41,-154.54 260.41,-169.46 244.6,-180 222.23,-180 206.41,-169.46 206.41,-154.54 222.23,-144 244.6,-144 260.41,-154.54"/>
<text text-anchor="middle" x="233.41" y="-159.8" font-family="Times,serif" font-size="9.00">Root</text>
</g>
<!-- BatteryCheck -->
<g id="node2" class="node">
<title>BatteryCheck</title>
<polygon fill="orange" stroke="black" points="174.41,-108 94.41,-108 94.41,-72 174.41,-72 174.41,-108"/>
<text text-anchor="middle" x="134.41" y="-87.8" font-family="Times,serif" font-size="9.00">BatteryCheck</text>
</g>
<!-- Root&#45;&gt;BatteryCheck -->
<g id="edge1" class="edge">
<title>Root&#45;&gt;BatteryCheck</title>
<path fill="none" stroke="black" d="M215.26,-148.16C201.88,-138.7 183.32,-125.58 167.35,-114.29"/>
<polygon fill="black" stroke="black" points="168.98,-111.16 158.8,-108.24 164.94,-116.87 168.98,-111.16"/>
</g>
<!-- SafetyCheck -->
<g id="node5" class="node">
<title>SafetyCheck</title>
<polygon fill="orange" stroke="black" points="270.41,-108 196.41,-108 196.41,-72 270.41,-72 270.41,-108"/>
<text text-anchor="middle" x="233.41" y="-87.8" font-family="Times,serif" font-size="9.00">SafetyCheck</text>
</g>
<!-- Root&#45;&gt;SafetyCheck -->
<g id="edge4" class="edge">
<title>Root&#45;&gt;SafetyCheck</title>
<path fill="none" stroke="black" d="M233.41,-143.7C233.41,-135.98 233.41,-126.71 233.41,-118.11"/>
<polygon fill="black" stroke="black" points="236.91,-118.1 233.41,-108.1 229.91,-118.1 236.91,-118.1"/>
</g>
<!-- PatrolRooms -->
<g id="node8" class="node">
<title>PatrolRooms</title>
<ellipse fill="gray" stroke="black" cx="331.41" cy="-90" rx="42.95" ry="18"/>
<text text-anchor="middle" x="331.41" y="-87.8" font-family="Times,serif" font-size="9.00">PatrolRooms</text>
</g>
<!-- Root&#45;&gt;PatrolRooms -->
<g id="edge7" class="edge">
<title>Root&#45;&gt;PatrolRooms</title>
<path fill="none" stroke="black" d="M251.39,-148.16C265.6,-138.01 285.72,-123.64 302.24,-111.84"/>
<polygon fill="black" stroke="black" points="304.39,-114.6 310.49,-105.94 300.32,-108.91 304.39,-114.6"/>
</g>
<!-- BatteryLow -->
<g id="node3" class="node">
<title>BatteryLow</title>
<ellipse fill="gray" stroke="black" cx="40.41" cy="-18" rx="40.33" ry="18"/>
<text text-anchor="middle" x="40.41" y="-15.8" font-family="Times,serif" font-size="9.00">BatteryLow</text>
</g>
<!-- BatteryCheck&#45;&gt;BatteryLow -->
<g id="edge2" class="edge">
<title>BatteryCheck&#45;&gt;BatteryLow</title>
<path fill="none" stroke="black" d="M111.18,-71.7C98.21,-62.04 81.97,-49.95 68.32,-39.78"/>
<polygon fill="black" stroke="black" points="70.32,-36.9 60.21,-33.74 66.14,-42.52 70.32,-36.9"/>
</g>
<!-- Recharge -->
<g id="node4" class="node">
<title>Recharge</title>
<ellipse fill="gray" stroke="black" cx="134.41" cy="-18" rx="35.44" ry="18"/>
<text text-anchor="middle" x="134.41" y="-15.8" font-family="Times,serif" font-size="9.00">Recharge</text>
</g>
<!-- BatteryCheck&#45;&gt;Recharge -->
<g id="edge3" class="edge">
<title>BatteryCheck&#45;&gt;Recharge</title>
<path fill="none" stroke="black" d="M134.41,-71.7C134.41,-63.98 134.41,-54.71 134.41,-46.11"/>
<polygon fill="black" stroke="black" points="137.91,-46.1 134.41,-36.1 130.91,-46.1 137.91,-46.1"/>
</g>
<!-- DetectPerson -->
<g id="node6" class="node">
<title>DetectPerson</title>
<ellipse fill="gray" stroke="black" cx="233.41" cy="-18" rx="45.72" ry="18"/>
<text text-anchor="middle" x="233.41" y="-15.8" font-family="Times,serif" font-size="9.00">DetectPerson</text>
</g>
<!-- SafetyCheck&#45;&gt;DetectPerson -->
<g id="edge5" class="edge">
<title>SafetyCheck&#45;&gt;DetectPerson</title>
<path fill="none" stroke="black" d="M233.41,-71.7C233.41,-63.98 233.41,-54.71 233.41,-46.11"/>
<polygon fill="black" stroke="black" points="236.91,-46.1 233.41,-36.1 229.91,-46.1 236.91,-46.1"/>
</g>
<!-- Stop -->
<g id="node7" class="node">
<title>Stop</title>
<ellipse fill="gray" stroke="black" cx="324.41" cy="-18" rx="27" ry="18"/>
<text text-anchor="middle" x="324.41" y="-15.8" font-family="Times,serif" font-size="9.00">Stop</text>
</g>
<!-- SafetyCheck&#45;&gt;Stop -->
<g id="edge6" class="edge">
<title>SafetyCheck&#45;&gt;Stop</title>
<path fill="none" stroke="black" d="M255.91,-71.7C269.07,-61.57 285.72,-48.76 299.31,-38.31"/>
<polygon fill="black" stroke="black" points="301.52,-41.02 307.32,-32.15 297.26,-35.48 301.52,-41.02"/>
</g>
</g>
</svg>
